<?xml version="1.0" encoding="utf-8"?>
<svg viewBox="167.0839 144.2883 221.1265 284.7211" width="221.1265" height="284.7211" xmlns="http://www.w3.org/2000/svg">
  <g transform="matrix(4.166669845581055, 0, 0, 4.166669845581055, -1537.4951171875, -351.662109375)">
    <g transform="matrix(1,0,0,1,436.52,160.537)">
      <path d="M0,-37.398L7.408,-21.971L0,-24.333L0,-37.398ZM-1.776,-24.333L-9.186,-21.971L-1.776,-37.398L-1.776,-24.333ZM-0.889,-41.482C-1.437,-41.482 -1.937,-41.168 -2.175,-40.672L-11.827,-20.575C-12.108,-19.99 -11.554,-19.352 -10.935,-19.549L-1.776,-22.467L-1.776,4.084L0,4.084L0,-22.467L9.158,-19.549C9.776,-19.352 10.331,-19.99 10.05,-20.575L0.398,-40.672C0.161,-41.168 -0.34,-41.482 -0.889,-41.482" style="fill:#556987;fill-rule:nonzero;"/>
    </g>
  </g>
  <g transform="matrix(4.166669845581055, 0, 0, 4.166669845581055, -1537.4951171875, -351.662109375)">
    <g transform="matrix(1,0,0,1,424.288,153.471)">
      <path d="M0,1.325C-0.444,0.796 -1.308,1.11 -1.308,1.801L-1.308,6.483L-4.267,0.322L-0.478,-7.568L6.207,8.721L0,1.325ZM7.955,10.805L8.98,10.805L0.28,-10.395C0.037,-10.988 -0.794,-11.013 -1.071,-10.435L-6.084,0.001C-6.181,0.204 -6.181,0.439 -6.084,0.642L-2.909,7.253C-2.091,8.957 0.47,8.374 0.47,6.483L0.47,4.648L6.922,12.338L8.997,12.047L7.955,10.805Z" style="fill:#556987;fill-rule:nonzero;"/>
    </g>
  </g>
  <g transform="matrix(4.166669845581055, 0, 0, 4.166669845581055, -1537.4951171875, -351.662109375)">
    <g transform="matrix(1,0,0,1,440.746,145.881)">
      <path d="M0,16.311L6.684,0.022L10.473,7.912L7.514,14.073L7.514,9.39C7.514,8.7 6.65,8.385 6.206,8.915L0,16.311ZM-0.554,19.734L5.737,12.238L5.737,14.073C5.737,15.963 8.297,16.546 9.115,14.842L12.29,8.232C12.388,8.029 12.388,7.793 12.29,7.59L7.278,-2.845C7.001,-3.423 6.169,-3.399 5.926,-2.805L-2.773,18.395L-1.749,18.395L-2.822,19.673L-0.554,19.734Z" style="fill:#556987;fill-rule:nonzero;"/>
    </g>
  </g>
  <g transform="matrix(4.166669845581055, 0, 0, 4.166669845581055, -1537.4951171875, -351.662109375)">
    <g transform="matrix(1,0,0,1,436.527,176.978)">
      <path d="M0,6.815L0,-0.083L1.908,4.525L1.913,4.535L0,6.815ZM-1.79,-0.083L-1.79,6.815L-3.703,4.535L-3.698,4.525L-1.79,-0.083ZM0.451,-3.637L-2.241,-3.637L-5.649,4.592C-5.713,4.744 -5.686,4.92 -5.579,5.047L-1.235,10.224C-1.058,10.436 -0.732,10.436 -0.555,10.224L3.789,5.047C3.896,4.92 3.923,4.744 3.859,4.592L0.451,-3.637Z" style="fill:#556987;fill-rule:nonzero;"/>
    </g>
  </g>
  <g transform="matrix(4.166669845581055, 0, 0, 4.166669845581055, -1537.4951171875, -351.662109375)">
    <g transform="matrix(1,0,0,1,422.986,173.869)">
      <path d="M0,4.471C0.744,4.81 1.571,4.998 2.442,4.998C2.795,4.998 3.142,4.967 3.478,4.908C6.123,4.439 8.159,2.209 8.331,-0.527L5.495,-0.527C5.081,2.199 2.802,4.312 0,4.471" style="fill:#556987;fill-rule:nonzero;"/>
    </g>
  </g>
  <g transform="matrix(4.166669845581055, 0, 0, 4.166669845581055, -1537.4951171875, -351.662109375)">
    <g transform="matrix(1,0,0,1,448.295,173.869)">
      <path d="M0,4.471C-0.744,4.81 -1.571,4.998 -2.442,4.998C-2.795,4.998 -3.142,4.967 -3.478,4.908C-6.123,4.439 -8.159,2.209 -8.331,-0.527L-5.495,-0.527C-5.081,2.199 -2.802,4.312 0,4.471" style="fill:#556987;fill-rule:nonzero;"/>
    </g>
  </g>
  <g transform="matrix(4.166669845581055, 0, 0, 4.166669845581055, -1537.4951171875, -351.662109375)">
    <g transform="matrix(1,0,0,1,424.49,119.441)">
      <path d="M0,13.797C-0.251,13.546 -0.502,13.295 -0.752,13.043C-2.432,11.352 -3.274,9.376 -3.259,7.172C-3.257,5.516 -2.698,3.882 -1.687,2.57C-0.675,1.26 0.764,0.305 2.364,-0.119C3.113,-0.314 3.85,-0.413 4.554,-0.413C5.492,-0.413 6.4,-0.236 7.254,0.112L6.313,2.05C5.754,1.84 5.162,1.734 4.554,1.734C4.033,1.734 3.48,1.809 2.91,1.957C1.766,2.261 0.736,2.944 0.013,3.883C-0.711,4.82 -1.11,5.989 -1.112,7.175C-1.124,8.821 -0.508,10.242 0.771,11.53L1.404,12.167L0.412,14.21L0,13.797Z" style="fill:#556987;fill-rule:nonzero;"/>
    </g>
  </g>
  <g transform="matrix(4.166669845581055, 0, 0, 4.166669845581055, -1537.4951171875, -351.662109375)">
    <g transform="matrix(1,0,0,1,446.774,119.441)">
      <path d="M0,13.797C0.251,13.546 0.502,13.295 0.752,13.043C2.432,11.352 3.274,9.376 3.259,7.172C3.257,5.516 2.698,3.882 1.687,2.57C0.675,1.26 -0.764,0.305 -2.364,-0.119C-3.113,-0.314 -3.85,-0.413 -4.554,-0.413C-5.492,-0.413 -6.4,-0.236 -7.254,0.112L-6.313,2.05C-5.754,1.84 -5.162,1.734 -4.554,1.734C-4.034,1.734 -3.48,1.809 -2.91,1.957C-1.766,2.261 -0.736,2.944 -0.013,3.883C0.711,4.82 1.11,5.989 1.112,7.175C1.124,8.821 0.508,10.242 -0.771,11.53L-1.404,12.167L-0.412,14.21L0,13.797Z" style="fill:#556987;fill-rule:nonzero;"/>
    </g>
  </g>
  <g transform="matrix(4.166669845581055, 0, 0, 4.166669845581055, -1537.4951171875, -351.662109375)">
    <g transform="matrix(1,0,0,1,454.511,132.186)">
      <path d="M0,28.801C-0.613,28.801 -1.22,28.732 -1.803,28.596L-0.832,26.596C-0.561,26.634 -0.28,26.654 0,26.654L0.048,26.654C1.245,26.652 2.415,26.252 3.354,25.529C4.291,24.805 4.975,23.776 5.278,22.631C5.83,20.51 5.378,18.78 3.855,17.188C3.667,16.991 3.438,16.786 3.174,16.548C3.009,16.401 2.851,16.259 2.682,16.102L0.904,14.453L2.674,12.798C2.848,12.635 3.009,12.487 3.163,12.345L3.189,12.321C3.419,12.111 3.617,11.928 3.81,11.742C5.138,10.463 5.743,8.614 5.431,6.798C5.117,4.983 3.928,3.445 2.249,2.685C1.456,2.322 0.712,2.147 -0.036,2.147C-1.206,2.147 -2.411,2.599 -3.619,3.489C-3.851,3.665 -4.066,3.855 -4.262,4.055L-6.043,5.834L-7.034,3.789L-5.799,2.556C-5.524,2.276 -5.225,2.012 -4.905,1.77C-3.317,0.596 -1.679,0 -0.037,0C1.014,0 2.08,0.245 3.134,0.73C5.463,1.783 7.111,3.915 7.546,6.434C7.979,8.952 7.141,11.514 5.301,13.287C5.088,13.492 4.874,13.689 4.642,13.902C4.484,14.046 4.319,14.198 4.141,14.365L4.054,14.447L4.141,14.528C4.301,14.676 4.455,14.814 4.604,14.947C4.891,15.204 5.161,15.447 5.407,15.704C7.438,17.829 8.094,20.344 7.354,23.177C6.931,24.777 5.976,26.216 4.665,27.229C3.354,28.239 1.719,28.798 0.063,28.8L0,28.801Z" style="fill:#556987;fill-rule:nonzero;"/>
    </g>
  </g>
  <g transform="matrix(4.166669845581055, 0, 0, 4.166669845581055, -1537.4951171875, -351.662109375)">
    <g transform="matrix(1,0,0,1,416.695,132.187)">
      <path d="M0,28.799C-1.657,28.797 -3.292,28.238 -4.604,27.228C-5.914,26.215 -6.869,24.777 -7.293,23.176C-8.032,20.342 -7.377,17.828 -5.346,15.703C-5.099,15.445 -4.828,15.202 -4.542,14.945C-4.393,14.813 -4.239,14.674 -4.08,14.527L-3.992,14.445L-4.079,14.364C-4.257,14.198 -4.421,14.047 -4.578,13.903C-4.811,13.69 -5.026,13.491 -5.239,13.286C-7.079,11.513 -7.918,8.951 -7.484,6.433C-7.05,3.914 -5.401,1.782 -3.073,0.729C-2.019,0.244 -0.952,-0.001 0.099,-0.001C1.74,-0.001 3.378,0.595 4.968,1.77C5.286,2.011 5.586,2.275 5.858,2.554L7.084,3.778L6.093,5.821L4.323,4.054C4.128,3.854 3.912,3.663 3.682,3.489C2.473,2.597 1.268,2.146 0.099,2.146C-0.65,2.146 -1.395,2.32 -2.177,2.679C-3.866,3.444 -5.056,4.982 -5.369,6.798C-5.682,8.613 -5.076,10.461 -3.75,11.74C-3.556,11.927 -3.357,12.11 -3.128,12.32C-2.956,12.478 -2.79,12.63 -2.612,12.797L-0.843,14.452L-2.62,16.101C-2.793,16.261 -2.953,16.404 -3.108,16.544C-3.375,16.783 -3.604,16.989 -3.795,17.188C-5.317,18.779 -5.769,20.509 -5.217,22.629C-4.913,23.775 -4.229,24.804 -3.291,25.528C-2.353,26.252 -1.184,26.651 0.001,26.653L0.061,26.653C0.331,26.653 0.6,26.635 0.859,26.6L1.833,28.602C1.258,28.734 0.663,28.8 0.061,28.8L0,28.799Z" style="fill:#556987;fill-rule:nonzero;"/>
    </g>
  </g>
  <g transform="matrix(4.166669845581055, 0, 0, 4.166669845581055, -1537.4951171875, -351.662109375)">
    <g transform="matrix(1,0,0,1,442.226,168.326)">
      <path d="M0,3.239L-13.188,3.239C-13.434,3.239 -13.633,3.04 -13.633,2.795L-13.633,0L0.444,0L0.444,2.795C0.444,3.04 0.245,3.239 0,3.239" style="fill:#dc5a64;fill-rule:nonzero;"/>
    </g>
  </g>
  <g transform="matrix(4.166669845581055, 0, 0, 4.166669845581055, -1537.4951171875, -351.662109375)">
    <g transform="matrix(1,0,0,1,442.67,163.468)">
      <path d="M0,3.239L-14.077,3.239L-14.077,0.444C-14.077,0.198 -13.878,0 -13.633,0L-0.444,0C-0.199,0 0,0.198 0,0.444L0,3.239Z" style="fill:#dc5a64;fill-rule:nonzero;"/>
    </g>
  </g>
</svg>