<?xml version="1.0" encoding="utf-8"?>
<svg viewBox="143.2635 343.526 204.8262 88.9482" width="204.8262" height="88.9482" xmlns="http://www.w3.org/2000/svg">
  <path d="M 69.313 396.516 L 78.957 416.596 L 69.313 413.523 L 69.313 396.516 Z M 67 413.523 L 57.357 416.596 L 67 396.516 L 67 413.523 Z M 68.157 391.2 C 67.442 391.2 66.791 391.61 66.482 392.253 L 53.917 418.414 C 53.552 419.176 54.274 420.006 55.08 419.749 L 67 415.951 L 67 450.514 L 69.313 450.514 L 69.313 415.951 L 81.234 419.749 C 82.04 420.006 82.761 419.176 82.395 418.414 L 69.832 392.253 C 69.522 391.61 68.871 391.2 68.157 391.2" fill="#5a6986" transform="matrix(1, 0, 0, 1, 109.64370727539064, -47.638004302978516)"/>
  <path d="M 53.393 437.723 C 52.814 437.034 51.691 437.443 51.691 438.342 L 51.691 444.438 L 47.838 436.416 L 52.771 426.148 L 61.471 447.351 L 53.393 437.723 Z M 63.747 450.063 L 65.081 450.063 L 53.757 422.466 C 53.441 421.695 52.359 421.662 51.997 422.415 L 45.473 435.999 C 45.347 436.263 45.347 436.57 45.473 436.833 L 49.606 445.439 C 50.671 447.657 54.003 446.898 54.003 444.438 L 54.003 442.049 L 62.402 452.058 L 65.103 451.679 L 63.747 450.063 Z" fill="#5a6986" transform="matrix(1, 0, 0, 1, 109.64370727539064, -47.638004302978516)"/>
  <path d="M 74.814 447.351 L 83.515 426.148 L 88.447 436.416 L 84.595 444.438 L 84.595 438.342 C 84.595 437.443 83.471 437.034 82.893 437.723 L 74.814 447.351 Z M 74.094 451.807 L 82.282 442.049 L 82.282 444.438 C 82.282 446.898 85.615 447.657 86.68 445.439 L 90.812 436.833 C 90.939 436.57 90.939 436.263 90.812 435.999 L 84.289 422.415 C 83.927 421.663 82.845 421.695 82.528 422.466 L 71.204 450.063 L 72.539 450.063 L 71.141 451.728 L 74.094 451.807 Z" fill="#5a6986" transform="matrix(1, 0, 0, 1, 109.64370727539064, -47.638004302978516)"/>
  <path d="M 69.322 475.447 L 69.322 466.489 L 71.806 472.486 L 71.812 472.5 L 69.322 475.468 L 69.322 475.447 Z M 66.992 475.447 L 66.992 475.468 L 64.502 472.5 L 64.508 472.486 L 66.992 466.489 L 66.992 475.447 Z M 69.91 461.863 L 66.404 461.863 L 61.968 472.574 C 61.885 472.773 61.921 473.002 62.059 473.167 L 67.714 479.906 C 67.945 480.181 68.369 480.181 68.6 479.906 L 74.255 473.167 C 74.393 473.002 74.428 472.773 74.345 472.574 L 69.91 461.863 Z" fill="#5a6986" transform="matrix(1, 0, 0, 1, 109.64370727539064, -47.638004302978516)"/>
  <path d="M 51.696 468.369 C 52.665 468.81 53.741 469.055 54.875 469.055 C 55.335 469.055 55.785 469.015 56.222 468.937 C 59.666 468.328 62.316 465.426 62.541 461.863 L 58.848 461.863 C 58.309 465.412 55.343 468.162 51.696 468.369" fill="#5a6986" transform="matrix(1, 0, 0, 1, 109.64370727539064, -47.638004302978516)"/>
  <path d="M 84.642 468.369 C 83.673 468.81 82.596 469.055 81.463 469.055 C 81.003 469.055 80.553 469.015 80.115 468.937 C 76.672 468.328 74.021 465.426 73.796 461.863 L 77.489 461.863 C 78.028 465.412 80.995 468.162 84.642 468.369" fill="#5a6986" transform="matrix(1, 0, 0, 1, 109.64370727539064, -47.638004302978516)"/>
  <path d="M 53.654 409.661 C 53.328 409.334 53.002 409.007 52.676 408.68 C 50.49 406.477 49.392 403.906 49.413 401.038 C 49.416 398.882 50.142 396.755 51.459 395.048 C 52.776 393.341 54.649 392.098 56.732 391.547 C 57.707 391.293 58.666 391.164 59.582 391.164 C 60.804 391.164 61.986 391.393 63.097 391.848 L 61.873 394.37 C 61.144 394.097 60.375 393.958 59.582 393.958 C 58.905 393.958 58.185 394.056 57.443 394.25 C 55.953 394.644 54.613 395.534 53.671 396.756 C 52.729 397.976 52.209 399.498 52.207 401.041 C 52.191 403.184 52.994 405.033 54.659 406.71 L 55.482 407.539 L 54.191 410.199 L 53.654 409.661 Z" fill="#5a6986" transform="matrix(1, 0, 0, 1, 109.64370727539064, -47.638004302978516)"/>
  <path d="M 82.661 409.661 C 82.987 409.334 83.313 409.007 83.639 408.68 C 85.825 406.477 86.924 403.906 86.902 401.038 C 86.899 398.882 86.173 396.755 84.856 395.048 C 83.539 393.341 81.666 392.098 79.583 391.547 C 78.608 391.293 77.649 391.164 76.733 391.164 C 75.511 391.164 74.329 391.393 73.218 391.848 L 74.442 394.37 C 75.171 394.097 75.94 393.958 76.733 393.958 C 77.41 393.958 78.13 394.056 78.873 394.25 C 80.362 394.644 81.702 395.534 82.644 396.756 C 83.587 397.976 84.106 399.498 84.108 401.041 C 84.124 403.184 83.322 405.033 81.656 406.71 L 80.833 407.539 L 82.124 410.199 L 82.661 409.661 Z" fill="#5a6986" transform="matrix(1, 0, 0, 1, 109.64370727539064, -47.638004302978516)"/>
  <path d="M 92.733 445.781 C 91.933 445.781 91.145 445.691 90.385 445.515 L 91.649 442.911 C 92.003 442.961 92.367 442.986 92.733 442.986 L 92.795 442.986 C 94.353 442.984 95.876 442.464 97.097 441.521 C 98.318 440.579 99.208 439.24 99.602 437.75 C 100.321 434.989 99.733 432.738 97.751 430.665 C 97.505 430.408 97.208 430.141 96.863 429.833 C 96.648 429.639 96.443 429.456 96.222 429.251 L 93.91 427.105 L 96.212 424.95 C 96.438 424.739 96.649 424.546 96.849 424.361 L 96.884 424.329 C 97.182 424.055 97.44 423.818 97.691 423.576 C 99.42 421.911 100.209 419.505 99.8 417.141 C 99.393 414.777 97.845 412.776 95.66 411.787 C 94.628 411.313 93.66 411.086 92.685 411.086 C 91.163 411.086 89.593 411.674 88.021 412.833 C 87.719 413.062 87.438 413.309 87.185 413.569 L 84.866 415.885 L 83.576 413.224 L 85.184 411.619 C 85.541 411.254 85.931 410.91 86.347 410.595 C 88.415 409.067 90.546 408.292 92.684 408.292 C 94.051 408.292 95.44 408.611 96.812 409.241 C 99.842 410.613 101.989 413.388 102.554 416.666 C 103.119 419.944 102.027 423.279 99.631 425.587 C 99.355 425.853 99.076 426.11 98.774 426.387 C 98.569 426.575 98.354 426.773 98.122 426.99 L 98.008 427.096 L 98.123 427.202 C 98.33 427.394 98.531 427.575 98.725 427.749 C 99.097 428.083 99.45 428.398 99.771 428.734 C 102.415 431.5 103.267 434.772 102.304 438.461 C 101.754 440.544 100.51 442.417 98.804 443.734 C 97.096 445.051 94.969 445.777 92.815 445.78 L 92.733 445.781 Z" fill="#5a6986" transform="matrix(1, 0, 0, 1, 109.64370727539064, -47.638004302978516)"/>
  <path d="M 43.509 445.78 C 41.351 445.777 39.224 445.051 37.517 443.734 C 35.81 442.417 34.567 440.544 34.016 438.461 C 33.054 434.772 33.906 431.5 36.55 428.734 C 36.871 428.398 37.224 428.082 37.597 427.748 C 37.79 427.574 37.991 427.394 38.198 427.202 L 38.312 427.096 L 38.198 426.99 C 37.968 426.774 37.753 426.578 37.549 426.39 C 37.246 426.112 36.966 425.854 36.689 425.587 C 34.294 423.279 33.201 419.944 33.766 416.666 C 34.331 413.388 36.478 410.613 39.508 409.241 C 40.881 408.611 42.27 408.292 43.637 408.292 C 45.774 408.292 47.906 409.067 49.975 410.596 C 50.389 410.91 50.78 411.254 51.135 411.617 L 52.73 413.21 L 51.439 415.87 L 49.136 413.569 C 48.882 413.309 48.601 413.061 48.301 412.835 C 46.727 411.674 45.158 411.086 43.637 411.086 C 42.661 411.086 41.693 411.313 40.675 411.78 C 38.476 412.776 36.928 414.777 36.52 417.141 C 36.113 419.506 36.901 421.91 38.628 423.575 C 38.88 423.818 39.138 424.055 39.437 424.329 C 39.66 424.535 39.876 424.733 40.108 424.95 L 42.411 427.105 L 40.099 429.251 C 39.873 429.46 39.664 429.646 39.462 429.828 C 39.115 430.139 38.817 430.407 38.569 430.666 C 36.588 432.738 35.999 434.989 36.718 437.749 C 37.113 439.24 38.003 440.58 39.224 441.522 C 40.446 442.465 41.968 442.984 43.509 442.986 L 43.587 442.986 C 43.94 442.986 44.289 442.964 44.627 442.918 L 45.895 445.524 C 45.147 445.694 44.371 445.781 43.588 445.781 L 43.509 445.78 Z" fill="#5a6986" transform="matrix(1, 0, 0, 1, 109.64370727539064, -47.638004302978516)"/>
  <path d="M 76.741 459.551 L 59.573 459.551 C 59.254 459.551 58.995 459.292 58.995 458.973 L 58.995 455.335 L 77.319 455.335 L 77.319 458.973 C 77.319 459.292 77.06 459.551 76.741 459.551" fill="#e11e4c" transform="matrix(1, 0, 0, 1, 109.64370727539064, -47.638004302978516)"/>
  <path d="M 77.319 453.227 L 58.995 453.227 L 58.995 449.588 C 58.995 449.269 59.254 449.01 59.573 449.01 L 76.741 449.01 C 77.06 449.01 77.319 449.269 77.319 449.588 L 77.319 453.227 Z" fill="#e11e4c" transform="matrix(1, 0, 0, 1, 109.64370727539064, -47.638004302978516)"/>
  <path d="M 119.974 423.712 C 118.786 423.388 117.822 422.955 117.08 422.415 L 118.4 419.405 C 119.187 419.899 120.028 420.277 120.923 420.54 C 121.818 420.802 122.721 420.934 123.632 420.934 C 124.558 420.934 125.264 420.807 125.75 420.552 C 126.237 420.297 126.48 419.938 126.48 419.475 C 126.48 419.058 126.26 418.719 125.82 418.456 C 125.38 418.194 124.542 417.932 123.308 417.669 C 121.781 417.345 120.583 416.959 119.719 416.511 C 118.855 416.064 118.249 415.539 117.903 414.938 C 117.555 414.335 117.381 413.595 117.381 412.715 C 117.381 411.712 117.663 410.813 118.226 410.018 C 118.789 409.223 119.584 408.598 120.611 408.143 C 121.637 407.688 122.814 407.459 124.142 407.459 C 125.314 407.459 126.453 407.626 127.556 407.957 C 128.66 408.289 129.52 408.718 130.138 409.242 L 128.841 412.251 C 127.359 411.233 125.8 410.724 124.164 410.724 C 123.377 410.724 122.745 410.874 122.266 411.175 C 121.787 411.476 121.548 411.873 121.548 412.367 C 121.548 412.661 121.633 412.899 121.803 413.085 C 121.973 413.271 122.289 413.452 122.752 413.629 C 123.215 413.807 123.902 413.988 124.813 414.174 C 126.294 414.497 127.459 414.888 128.308 415.342 C 129.158 415.798 129.759 416.326 130.114 416.929 C 130.469 417.53 130.647 418.248 130.647 419.081 C 130.647 420.688 130.03 421.941 128.795 422.843 C 127.56 423.746 125.824 424.197 123.586 424.197 C 122.367 424.197 121.162 424.035 119.974 423.712" fill="#5a6986" transform="matrix(1, 0, 0, 1, 109.64370727539064, -47.638004302978516)"/>
  <path d="M 141.978 423.989 L 135.403 416.603 L 135.403 423.989 L 131.143 423.989 L 131.143 407.668 L 135.403 407.668 L 135.403 414.682 L 141.792 407.668 L 146.77 407.668 L 139.57 415.424 L 147.025 423.989 L 141.978 423.989 Z" fill="#5a6986" transform="matrix(1, 0, 0, 1, 109.64370727539064, -47.638004302978516)"/>
  <path d="M 156.356 417.414 L 154.111 412.183 L 151.865 417.414 L 156.356 417.414 Z M 157.722 420.608 L 150.499 420.608 L 149.041 423.989 L 144.757 423.989 L 152.375 407.668 L 155.754 407.668 L 163.394 423.989 L 159.18 423.989 L 157.722 420.608 Z" fill="#5a6986" transform="matrix(1, 0, 0, 1, 109.64370727539064, -47.638004302978516)"/>
  <path d="M 164.474 422.393 C 163.247 421.188 162.634 419.429 162.634 417.114 L 162.634 407.668 L 166.801 407.668 L 166.801 417.276 C 166.801 418.45 167.063 419.352 167.588 419.985 C 168.113 420.618 168.869 420.934 169.857 420.934 C 170.844 420.934 171.601 420.618 172.126 419.985 C 172.65 419.352 172.912 418.45 172.912 417.276 L 172.912 407.668 L 177.103 407.668 L 177.103 417.114 C 177.103 419.414 176.482 421.169 175.24 422.38 C 173.996 423.592 172.203 424.198 169.857 424.198 C 167.495 424.198 165.702 423.596 164.474 422.393" fill="#5a6986" transform="matrix(1, 0, 0, 1, 109.64370727539064, -47.638004302978516)"/>
  <path d="M 183.263 411.117 L 178.378 411.117 L 178.378 407.668 L 192.454 407.668 L 192.454 411.117 L 187.57 411.117 L 187.57 423.989 L 183.263 423.989 L 183.263 411.117 Z" fill="#5a6986" transform="matrix(1, 0, 0, 1, 109.64370727539064, -47.638004302978516)"/>
  <path d="M 193.654 407.668 L 197.913 407.668 L 197.913 423.989 L 193.654 423.989 L 193.654 407.668 Z" fill="#5a6986" transform="matrix(1, 0, 0, 1, 109.64370727539064, -47.638004302978516)"/>
  <path d="M 208.487 422.393 C 207.26 421.188 206.647 419.429 206.647 417.114 L 206.647 407.668 L 210.814 407.668 L 210.814 417.276 C 210.814 418.45 211.076 419.352 211.601 419.985 C 212.126 420.618 212.882 420.934 213.87 420.934 C 214.857 420.934 215.614 420.618 216.139 419.985 C 216.663 419.352 216.926 418.45 216.926 417.276 L 216.926 407.668 L 221.116 407.668 L 221.116 417.114 C 221.116 419.414 220.495 421.169 219.253 422.38 C 218.009 423.592 216.216 424.198 213.87 424.198 C 211.508 424.198 209.715 423.596 208.487 422.393" fill="#5a6986" transform="matrix(1, 0, 0, 1, 109.64370727539064, -47.638004302978516)"/>
  <path d="M 238.446 407.668 L 238.446 423.989 L 235.298 423.989 L 227.842 414.659 L 227.842 423.989 L 223.884 423.989 L 223.884 407.668 L 226.986 407.668 L 234.464 416.997 L 234.464 407.668 L 238.446 407.668 Z" fill="#5a6986" transform="matrix(1, 0, 0, 1, 109.64370727539064, -47.638004302978516)"/>
  <path d="M 132.397 439.664 L 132.397 447.837 C 131.548 448.237 130.584 448.547 129.502 448.762 C 128.422 448.977 127.319 449.086 126.192 449.086 C 124.418 449.086 122.878 448.751 121.574 448.079 C 120.269 447.408 119.27 446.444 118.576 445.185 C 117.881 443.928 117.534 442.435 117.534 440.706 C 117.534 439.023 117.881 437.55 118.576 436.283 C 119.27 435.018 120.254 434.046 121.528 433.367 C 122.801 432.687 124.293 432.348 126.007 432.348 C 127.196 432.348 128.311 432.503 129.353 432.811 C 130.395 433.12 131.239 433.544 131.887 434.084 L 130.568 437.094 C 129.812 436.601 129.086 436.245 128.391 436.029 C 127.697 435.812 126.957 435.705 126.169 435.705 C 124.703 435.705 123.611 436.114 122.894 436.932 C 122.175 437.751 121.817 439.008 121.817 440.706 C 121.817 442.45 122.191 443.742 122.94 444.583 C 123.688 445.425 124.834 445.845 126.377 445.845 C 127.119 445.845 127.851 445.768 128.577 445.614 L 128.577 442.581 L 125.707 442.581 L 125.707 439.664 L 132.397 439.664 Z" fill="#5a6986" transform="matrix(1, 0, 0, 1, 109.64370727539064, -47.638004302978516)"/>
  <path d="M 144.149 442.303 L 141.903 437.072 L 139.657 442.303 L 144.149 442.303 Z M 145.514 445.497 L 138.292 445.497 L 136.834 448.878 L 132.55 448.878 L 140.167 432.557 L 143.546 432.557 L 151.187 448.878 L 146.973 448.878 L 145.514 445.497 Z" fill="#5a6986" transform="matrix(1, 0, 0, 1, 109.64370727539064, -47.638004302978516)"/>
  <path d="M 152.106 432.557 L 156.365 432.557 L 156.365 448.878 L 152.106 448.878 L 152.106 432.557 Z" fill="#5a6986" transform="matrix(1, 0, 0, 1, 109.64370727539064, -47.638004302978516)"/>
  <path d="M 164.97 445.451 C 166.574 445.451 167.772 445.057 168.558 444.271 C 169.345 443.483 169.74 442.296 169.74 440.706 C 169.74 439.116 169.345 437.931 168.558 437.152 C 167.772 436.373 166.574 435.982 164.97 435.982 L 162.886 435.982 L 162.886 445.451 L 164.97 445.451 Z M 158.627 432.556 L 165.272 432.556 C 167.077 432.556 168.631 432.881 169.936 433.528 C 171.24 434.177 172.24 435.114 172.934 436.342 C 173.628 437.568 173.976 439.023 173.976 440.706 C 173.976 442.404 173.632 443.865 172.946 445.092 C 172.258 446.319 171.263 447.257 169.959 447.905 C 168.655 448.554 167.092 448.878 165.272 448.878 L 158.627 448.878 L 158.627 432.556 Z" fill="#5a6986" transform="matrix(1, 0, 0, 1, 109.64370727539064, -47.638004302978516)"/>
  <path d="M 183.937 442.303 L 181.691 437.072 L 179.445 442.303 L 183.937 442.303 Z M 185.302 445.497 L 178.08 445.497 L 176.621 448.878 L 172.338 448.878 L 179.955 432.557 L 183.334 432.557 L 190.974 448.878 L 186.76 448.878 L 185.302 445.497 Z" fill="#5a6986" transform="matrix(1, 0, 0, 1, 109.64370727539064, -47.638004302978516)"/>
  <path d="M 193.318 448.601 C 192.13 448.277 191.165 447.844 190.423 447.304 L 191.743 444.294 C 192.53 444.788 193.371 445.166 194.267 445.429 C 195.162 445.691 196.064 445.823 196.975 445.823 C 197.901 445.823 198.607 445.696 199.093 445.441 C 199.58 445.186 199.823 444.827 199.823 444.364 C 199.823 443.947 199.603 443.608 199.163 443.345 C 198.723 443.083 197.885 442.821 196.651 442.558 C 195.124 442.234 193.926 441.848 193.063 441.4 C 192.198 440.953 191.593 440.428 191.246 439.827 C 190.898 439.224 190.724 438.484 190.724 437.604 C 190.724 436.601 191.006 435.702 191.569 434.907 C 192.132 434.112 192.927 433.487 193.954 433.032 C 194.98 432.577 196.157 432.348 197.485 432.348 C 198.657 432.348 199.796 432.515 200.9 432.846 C 202.003 433.178 202.863 433.607 203.481 434.131 L 202.184 437.14 C 200.703 436.122 199.143 435.613 197.508 435.613 C 196.721 435.613 196.088 435.763 195.61 436.064 C 195.13 436.365 194.891 436.762 194.891 437.256 C 194.891 437.55 194.976 437.788 195.146 437.974 C 195.316 438.16 195.632 438.341 196.095 438.518 C 196.559 438.696 197.245 438.877 198.156 439.063 C 199.637 439.386 200.803 439.777 201.652 440.232 C 202.501 440.687 203.102 441.215 203.458 441.818 C 203.812 442.419 203.99 443.137 203.99 443.97 C 203.99 445.577 203.373 446.83 202.138 447.732 C 200.903 448.635 199.167 449.086 196.929 449.086 C 195.71 449.086 194.505 448.924 193.318 448.601" fill="#5a6986" transform="matrix(1, 0, 0, 1, 109.64370727539064, -47.638004302978516)"/>
</svg>