<?xml version="1.0" encoding="utf-8"?>
<svg viewBox="352.353 240.588 20 20" width="20" height="20" xmlns="http://www.w3.org/2000/svg">
  <path d="M 364.943 246.588 L 362.353 249.178 L 359.763 246.588 L 358.353 247.998 L 360.943 250.588 L 358.353 253.178 L 359.763 254.588 L 362.353 251.998 L 364.943 254.588 L 366.353 253.178 L 363.763 250.588 L 366.353 247.998 L 364.943 246.588 Z M 362.353 240.588 C 356.823 240.588 352.353 245.058 352.353 250.588 C 352.353 256.118 356.823 260.588 362.353 260.588 C 367.883 260.588 372.353 256.118 372.353 250.588 C 372.353 245.058 367.883 240.588 362.353 240.588 Z M 362.353 258.588 C 357.943 258.588 354.353 254.998 354.353 250.588 C 354.353 246.178 357.943 242.588 362.353 242.588 C 366.763 242.588 370.353 246.178 370.353 250.588 C 370.353 254.998 366.763 258.588 362.353 258.588 Z" transform="matrix(1, 0, 0, 1, 0, 7.105427357601002e-15)"/>
</svg>