<?xml version="1.0" encoding="utf-8"?>
<svg viewBox="259.824 89.824 18 18" width="18" height="18" xmlns="http://www.w3.org/2000/svg">
  <path fill="white" d="M 275.824 89.824 L 261.824 89.824 C 260.724 89.824 259.824 90.724 259.824 91.824 L 259.824 105.824 C 259.824 106.924 260.724 107.824 261.824 107.824 L 275.824 107.824 C 276.924 107.824 277.824 106.924 277.824 105.824 L 277.824 91.824 C 277.824 90.724 276.924 89.824 275.824 89.824 Z M 268.824 92.824 C 270.754 92.824 272.324 94.394 272.324 96.324 C 272.324 98.254 270.754 99.824 268.824 99.824 C 266.894 99.824 265.324 98.254 265.324 96.324 C 265.324 94.394 266.894 92.824 268.824 92.824 Z M 275.824 105.824 L 261.824 105.824 L 261.824 105.594 C 261.824 104.974 262.104 104.394 262.584 104.014 C 264.294 102.644 266.464 101.824 268.824 101.824 C 271.184 101.824 273.354 102.644 275.064 104.014 C 275.544 104.394 275.824 104.984 275.824 105.594 L 275.824 105.824 L 275.824 105.824 Z" transform="matrix(1, 0, 0, 1, 0, 7.105427357601002e-15)"/>
</svg>