<?xml version="1.0" encoding="utf-8"?>
<svg viewBox="199.647 244.529 16.0004 18" width="16.0004" height="18" xmlns="http://www.w3.org/2000/svg">
  <path fill="white" d="M 207.647 255.429 L 205.517 257.519 C 204.957 258.079 204.647 258.809 204.647 259.589 C 204.647 261.209 205.997 262.529 207.647 262.529 C 209.297 262.529 210.647 261.209 210.647 259.589 C 210.647 258.809 210.337 258.069 209.777 257.519 L 207.647 255.429 Z" transform="matrix(1, 0, 0, 1, 0, 7.105427357601002e-15)"/>
  <path fill="white" d="M 211.647 248.529 L 211.207 249.079 C 210.027 250.549 207.647 249.719 207.647 247.829 L 207.647 244.529 C 207.647 244.529 199.647 248.529 199.647 255.529 C 199.647 258.449 201.207 260.999 203.537 262.389 C 202.977 261.599 202.647 260.629 202.647 259.589 C 202.647 258.269 203.167 257.029 204.117 256.089 L 207.647 252.629 L 211.177 256.099 C 212.127 257.029 212.647 258.269 212.647 259.599 C 212.647 260.619 212.337 261.559 211.797 262.349 C 213.687 261.199 215.087 259.289 215.507 257.049 C 216.167 253.499 214.437 250.149 211.647 248.529 Z" transform="matrix(1, 0, 0, 1, 0, 7.105427357601002e-15)"/>
</svg>