<?xml version="1.0" encoding="utf-8"?>
<svg viewBox="364.118 193.529 20 20" width="20" height="20" xmlns="http://www.w3.org/2000/svg">
  <path fill="white" d="M 374.118 193.529 C 368.598 193.529 364.118 198.009 364.118 203.529 C 364.118 209.049 368.598 213.529 374.118 213.529 C 379.638 213.529 384.118 209.049 384.118 203.529 C 384.118 198.009 379.638 193.529 374.118 193.529 Z M 374.998 209.289 L 374.998 210.529 L 373.248 210.529 L 373.248 209.239 C 372.508 209.059 370.858 208.469 370.228 206.279 L 371.878 205.609 C 371.938 205.829 372.458 207.699 374.278 207.699 C 375.208 207.699 376.258 207.219 376.258 206.089 C 376.258 205.129 375.558 204.629 373.978 204.059 C 372.878 203.669 370.628 203.029 370.628 200.749 C 370.628 200.649 370.638 198.349 373.248 197.789 L 373.248 196.529 L 374.998 196.529 L 374.998 197.769 C 376.838 198.089 377.508 199.559 377.658 199.999 L 376.078 200.669 C 375.968 200.319 375.488 199.329 374.178 199.329 C 373.478 199.329 372.368 199.699 372.368 200.719 C 372.368 201.669 373.228 202.029 375.008 202.619 C 377.408 203.449 378.018 204.669 378.018 206.069 C 378.018 208.699 375.518 209.199 374.998 209.289 Z" transform="matrix(1, 0, 0, 1, 0, 7.105427357601002e-15)"/>
</svg>