<?xml version="1.0" encoding="utf-8"?>
<svg viewBox="309 124.353 22 16" width="22" height="16" xmlns="http://www.w3.org/2000/svg">
  <path fill="white" d="M 323 132.353 C 325.21 132.353 327 130.563 327 128.353 C 327 126.143 325.21 124.353 323 124.353 C 320.79 124.353 319 126.143 319 128.353 C 319 130.563 320.79 132.353 323 132.353 Z M 314 130.353 L 314 127.353 L 312 127.353 L 312 130.353 L 309 130.353 L 309 132.353 L 312 132.353 L 312 135.353 L 314 135.353 L 314 132.353 L 317 132.353 L 317 130.353 L 314 130.353 Z M 323 134.353 C 320.33 134.353 315 135.693 315 138.353 L 315 140.353 L 331 140.353 L 331 138.353 C 331 135.693 325.67 134.353 323 134.353 Z" transform="matrix(1, 0, 0, 1, 0, 7.105427357601002e-15)"/>
</svg>