<?xml version="1.0" encoding="utf-8"?>
<svg viewBox="268.621 127.348 22 19" width="22" height="19" xmlns="http://www.w3.org/2000/svg">
  <path fill="white" d="M 282.621 140.348 L 284.621 140.348 L 284.621 137.348 L 285.621 137.348 L 285.621 135.348 L 284.621 130.348 L 269.621 130.348 L 268.621 135.348 L 268.621 137.348 L 269.621 137.348 L 269.621 143.348 L 278.621 143.348 L 278.621 137.348 L 282.621 137.348 L 282.621 140.348 Z M 276.621 141.348 L 271.621 141.348 L 271.621 137.348 L 276.621 137.348 L 276.621 141.348 Z M 269.621 127.348 L 284.621 127.348 L 284.621 129.348 L 269.621 129.348 L 269.621 127.348 Z"/>
  <path fill="white" d="M 287.621 141.348 L 287.621 138.348 L 285.621 138.348 L 285.621 141.348 L 282.621 141.348 L 282.621 143.348 L 285.621 143.348 L 285.621 146.348 L 287.621 146.348 L 287.621 143.348 L 290.621 143.348 L 290.621 141.348 L 287.621 141.348 Z"/>
</svg>