<?xml version="1.0" encoding="utf-8"?>
<svg viewBox="415.706 179.235 18 18" width="18" height="18" xmlns="http://www.w3.org/2000/svg">
  <path fill="white" d="M 428.706 179.235 L 417.706 179.235 C 416.606 179.235 415.706 180.135 415.706 181.235 L 415.706 195.235 C 415.706 196.335 416.606 197.235 417.706 197.235 L 431.706 197.235 C 432.806 197.235 433.706 196.335 433.706 195.235 L 433.706 184.235 L 428.706 179.235 Z M 419.706 183.235 L 424.706 183.235 L 424.706 185.235 L 419.706 185.235 L 419.706 183.235 Z M 429.706 193.235 L 419.706 193.235 L 419.706 191.235 L 429.706 191.235 L 429.706 193.235 Z M 429.706 189.235 L 419.706 189.235 L 419.706 187.235 L 429.706 187.235 L 429.706 189.235 Z M 427.706 185.235 L 427.706 181.235 L 431.706 185.235 L 427.706 185.235 Z" transform="matrix(1, 0, 0, 1, 0, 7.105427357601002e-15)"/>
</svg>