<?xml version="1.0" encoding="utf-8"?>
<svg viewBox="169.971 26.235 18 18" width="18" height="18" xmlns="http://www.w3.org/2000/svg">
  <path fill="white" d="M 185.971 26.235 L 171.971 26.235 C 170.871 26.235 169.971 27.135 169.971 28.235 L 169.971 42.235 C 169.971 43.335 170.871 44.235 171.971 44.235 L 185.971 44.235 C 187.071 44.235 187.971 43.335 187.971 42.235 L 187.971 28.235 C 187.971 27.135 187.071 26.235 185.971 26.235 Z M 175.971 40.235 L 173.971 40.235 L 173.971 33.235 L 175.971 33.235 L 175.971 40.235 Z M 179.971 40.235 L 177.971 40.235 L 177.971 30.235 L 179.971 30.235 L 179.971 40.235 Z M 183.971 40.235 L 181.971 40.235 L 181.971 36.235 L 183.971 36.235 L 183.971 40.235 Z"/>
</svg>