<?xml version="1.0" encoding="utf-8"?>
<svg viewBox="376.059 151.912 22 15" width="22" height="15" xmlns="http://www.w3.org/2000/svg">
  <path d="M 387.059 151.912 C 382.059 151.912 377.789 155.022 376.059 159.412 C 377.789 163.802 382.059 166.912 387.059 166.912 C 392.059 166.912 396.329 163.802 398.059 159.412 C 396.329 155.022 392.059 151.912 387.059 151.912 Z M 387.059 164.412 C 384.299 164.412 382.059 162.172 382.059 159.412 C 382.059 156.652 384.299 154.412 387.059 154.412 C 389.819 154.412 392.059 156.652 392.059 159.412 C 392.059 162.172 389.819 164.412 387.059 164.412 Z M 387.059 156.412 C 385.399 156.412 384.059 157.752 384.059 159.412 C 384.059 161.072 385.399 162.412 387.059 162.412 C 388.719 162.412 390.059 161.072 390.059 159.412 C 390.059 157.752 388.719 156.412 387.059 156.412 Z" transform="matrix(1, 0, 0, 1, 0, 7.105427357601002e-15)"/>
</svg>