<?xml version="1.0" encoding="utf-8"?>
<svg viewBox="425.471 88.882 22 14" width="22" height="14" xmlns="http://www.w3.org/2000/svg">
  <path fill="white" d="M 440.471 94.882 C 442.131 94.882 443.461 93.542 443.461 91.882 C 443.461 90.222 442.131 88.882 440.471 88.882 C 438.811 88.882 437.471 90.222 437.471 91.882 C 437.471 93.542 438.811 94.882 440.471 94.882 Z M 432.471 94.882 C 434.131 94.882 435.461 93.542 435.461 91.882 C 435.461 90.222 434.131 88.882 432.471 88.882 C 430.811 88.882 429.471 90.222 429.471 91.882 C 429.471 93.542 430.811 94.882 432.471 94.882 Z M 432.471 96.882 C 430.141 96.882 425.471 98.052 425.471 100.382 L 425.471 102.882 L 439.471 102.882 L 439.471 100.382 C 439.471 98.052 434.801 96.882 432.471 96.882 Z M 440.471 96.882 C 440.181 96.882 439.851 96.902 439.501 96.932 C 440.661 97.772 441.471 98.902 441.471 100.382 L 441.471 102.882 L 447.471 102.882 L 447.471 100.382 C 447.471 98.052 442.801 96.882 440.471 96.882 Z" transform="matrix(1, 0, 0, 1, 0, 7.105427357601002e-15)"/>
</svg>