<?xml version="1.0" encoding="utf-8"?>
<svg viewBox="206.825 187.682 20 18" width="20" height="18" xmlns="http://www.w3.org/2000/svg">
  <path fill="white" d="M 216.825 191.682 L 216.825 187.682 L 206.825 187.682 L 206.825 205.682 L 226.825 205.682 L 226.825 191.682 L 216.825 191.682 Z M 210.825 203.682 L 208.825 203.682 L 208.825 201.682 L 210.825 201.682 L 210.825 203.682 Z M 210.825 199.682 L 208.825 199.682 L 208.825 197.682 L 210.825 197.682 L 210.825 199.682 Z M 210.825 195.682 L 208.825 195.682 L 208.825 193.682 L 210.825 193.682 L 210.825 195.682 Z M 210.825 191.682 L 208.825 191.682 L 208.825 189.682 L 210.825 189.682 L 210.825 191.682 Z M 214.825 203.682 L 212.825 203.682 L 212.825 201.682 L 214.825 201.682 L 214.825 203.682 Z M 214.825 199.682 L 212.825 199.682 L 212.825 197.682 L 214.825 197.682 L 214.825 199.682 Z M 214.825 195.682 L 212.825 195.682 L 212.825 193.682 L 214.825 193.682 L 214.825 195.682 Z M 214.825 191.682 L 212.825 191.682 L 212.825 189.682 L 214.825 189.682 L 214.825 191.682 Z M 224.825 203.682 L 216.825 203.682 L 216.825 201.682 L 218.825 201.682 L 218.825 199.682 L 216.825 199.682 L 216.825 197.682 L 218.825 197.682 L 218.825 195.682 L 216.825 195.682 L 216.825 193.682 L 224.825 193.682 L 224.825 203.682 Z M 222.825 195.682 L 220.825 195.682 L 220.825 197.682 L 222.825 197.682 L 222.825 195.682 Z M 222.825 199.682 L 220.825 199.682 L 220.825 201.682 L 222.825 201.682 L 222.825 199.682 Z"/>
</svg>